<?xml version="1.0" standalone="no"?>
<!DOCTYPE svg PUBLIC "-//W3C//DTD SVG 20010904//EN"
 "http://www.w3.org/TR/2001/REC-SVG-20010904/DTD/svg10.dtd">
<svg version="1.0" xmlns="http://www.w3.org/2000/svg"
 width="300.000000pt" height="300.000000pt" viewBox="0 0 300.000000 300.000000"
 preserveAspectRatio="xMidYMid meet">
<metadata>
Created by potrace 1.11, written by Peter Selinger 2001-2013
</metadata>
<g transform="translate(0.000000,300.000000) scale(0.100000,-0.100000)"
fill="#000000" stroke="none">
<path d="M10 2567 l0 -84 103 -6 c528 -33 999 -342 1240 -815 59 -115 115
-266 119 -322 3 -29 -1 -35 -18 -38 -19 -3 -25 9 -53 93 -184 569 -689 961
-1278 992 l-113 6 0 -1027 0 -1026 659 0 659 0 30 73 c17 39 41 107 53 150 20
67 26 77 46 77 20 0 23 -4 17 -27 -6 -26 -73 -218 -89 -255 -7 -17 35 -18 799
-18 l806 0 0 1155 0 1155 -1490 0 -1490 0 0 -83z m2870 -1337 c42 -42 14 -110
-46 -110 -42 0 -64 23 -64 65 0 58 69 86 110 45z m-699 -26 c17 -21 0 -49 -32
-49 -27 0 -37 28 -19 50 16 19 34 19 51 -1z m-1660 -23 c26 -26 29 -36 29 -91
0 -56 -3 -65 -31 -93 -20 -20 -27 -33 -19 -35 32 -11 50 -43 50 -91 0 -26 3
-69 6 -95 l7 -46 -50 0 c-49 0 -51 1 -57 31 -3 17 -6 55 -6 85 0 61 -17 84
-61 84 l-29 0 0 -100 0 -100 -50 0 -50 0 0 240 0 240 116 0 c114 0 116 0 145
-29z m829 -212 l0 -240 -47 3 -48 3 -3 238 -2 237 50 0 50 0 0 -241z m130 31
l0 -210 90 0 90 0 0 -30 0 -31 -117 3 -118 3 -3 238 -2 237 30 0 30 0 0 -210z
m285 180 c0 -20 -6 -26 -26 -28 -28 -3 -43 16 -32 44 3 9 15 14 32 12 20 -2
26 -8 26 -28z m-952 -122 c38 -15 57 -56 57 -123 l0 -55 -85 0 -85 0 0 -33 c0
-61 53 -80 73 -27 10 27 16 30 54 30 40 0 43 -2 43 -26 0 -16 -13 -39 -34 -60
-32 -32 -38 -34 -99 -34 -105 0 -137 42 -137 178 0 66 16 118 44 141 36 30
105 34 169 9z m328 -4 c15 -7 29 -20 32 -28 3 -8 7 -77 8 -153 l1 -138 -41 -3
c-32 -2 -41 0 -41 12 0 20 -9 20 -34 1 -11 -8 -39 -15 -62 -15 -58 0 -84 32
-84 105 0 79 45 115 141 115 23 0 29 4 29 23 0 33 -15 49 -41 45 -16 -2 -25
-11 -27 -26 -3 -21 -8 -23 -50 -20 -44 3 -47 5 -44 28 9 70 125 99 213 54z
m1288 15 c17 -6 36 -19 41 -29 6 -10 10 -84 10 -164 l0 -146 -25 0 -25 0 0
128 c0 144 -10 172 -59 172 -54 0 -66 -28 -69 -171 -4 -129 -4 -129 -28 -129
l-24 0 0 139 c0 76 -3 153 -6 170 -6 29 -5 31 25 31 21 0 31 -5 31 -15 0 -19
14 -19 30 -1 6 8 21 17 33 19 12 2 25 5 28 6 3 0 20 -4 38 -10z m268 -4 c19
-13 22 -13 27 1 4 9 15 14 28 12 23 -3 23 -5 26 -183 4 -214 -4 -250 -53 -271
-77 -32 -175 0 -175 57 0 27 51 26 68 -1 8 -14 23 -20 47 -20 40 0 55 20 55
75 0 35 0 36 -22 21 -28 -20 -87 -20 -115 -1 -39 27 -59 145 -40 236 15 75 97
114 154 74z m-932 -165 l0 -165 -27 -3 -28 -3 0 171 0 171 28 -3 27 -3 0 -165z
m115 128 c6 -24 21 -79 32 -123 11 -44 24 -86 28 -93 4 -8 23 44 45 122 38
133 39 136 67 136 15 0 28 -3 28 -7 0 -3 -21 -72 -46 -152 -25 -80 -48 -154
-50 -164 -5 -14 -14 -17 -42 -15 l-37 3 -42 140 c-62 204 -61 195 -24 195 27
0 31 -4 41 -42z m300 -129 l0 -170 -27 3 -28 3 -3 155 c-1 85 0 160 2 167 3 7
17 13 31 13 l25 0 0 -171z"/>
<path d="M2802 1224 c-41 -28 -16 -94 36 -94 21 0 52 34 52 57 0 17 -36 53
-53 53 -7 0 -23 -7 -35 -16z m53 -41 c1 -34 -9 -43 -19 -20 -5 10 -7 10 -12 0
-11 -25 -24 -13 -24 23 0 33 2 35 28 32 23 -3 27 -8 27 -35z"/>
<path d="M2820 1200 c0 -5 5 -10 10 -10 6 0 10 5 10 10 0 6 -4 10 -10 10 -5 0
-10 -4 -10 -10z"/>
<path d="M360 1075 l0 -65 35 0 c39 0 55 20 55 69 0 38 -23 61 -61 61 l-29 0
0 -65z"/>
<path d="M718 1009 c-11 -6 -18 -22 -18 -39 0 -28 2 -30 40 -30 36 0 40 3 40
24 0 23 -23 56 -38 56 -4 0 -15 -5 -24 -11z"/>
<path d="M1022 878 c-27 -27 -11 -88 24 -88 27 0 44 26 44 69 0 27 -3 31 -28
31 -15 0 -33 -5 -40 -12z"/>
<path d="M2612 1013 c-27 -52 -23 -180 6 -209 23 -23 74 -14 89 16 16 32 16
148 0 180 -16 32 -80 41 -95 13z"/>
</g>
</svg>
